<svg xmlns="http://www.w3.org/2000/svg" viewBox="0 0 407.13 145.99"><defs><style>.cls-1{fill-rule:evenodd;}</style></defs><title>Webpage_UFCGym_Logo</title><g id="LOGOS"><polygon points="328.37 86.7 234.63 86.68 232.91 92.89 326.64 92.92 328.37 86.7"/><polygon points="323.03 63.13 313.95 76.34 306.82 76.34 305.34 63.13 299.65 80.48 292.76 80.47 303.11 48.81 310.14 48.82 312.26 69.26 325.64 48.82 332.63 48.82 326.08 80.48 319.24 80.48 323.03 63.13"/><polygon points="279.2 80.51 272.16 80.51 274.55 71.36 270.71 48.79 277.81 48.79 280.01 63.46 289.66 48.8 297.71 48.8 281.6 71.37 279.2 80.51"/><path d="M253,63.25,251.44,69h4.3l-1.5,5.25a25.45,25.45,0,0,1-4.71.53c-3,0-3.84-1.15-3.64-3.1a9.46,9.46,0,0,1,.31-1.57l3.09-11c.76-2.81,2.17-4.42,5.83-4.42a38.76,38.76,0,0,1,9,1.19l2.18-6a36.67,36.67,0,0,0-9.78-1.53c-8.47,0-12.21,3.47-13.81,9.27L238.89,71.3a13.88,13.88,0,0,0-.4,2C238,77.91,240.94,81,248.26,81a30.09,30.09,0,0,0,11.25-2l4.38-15.66Z"/><path class="cls-1" d="M202.65,80a1.87,1.87,0,0,1-1-1.15,1.6,1.6,0,0,1,0-.44,2.07,2.07,0,0,1,.07-.41l7.53-27.14a2.49,2.49,0,0,1,1.15-1.63,6.18,6.18,0,0,1,2.84-.47H234l3.45-12.44h-29.1c-5.3,0-9,.63-11.15,1.82s-3.65,3.32-4.51,6.43L181.94,83.3a8,8,0,0,0-.28,1.69,5.88,5.88,0,0,0,.16,1.73,7.28,7.28,0,0,0,3.71,4.51,14.94,14.94,0,0,0,7.33,1.65h30.46l3.45-12.43H204.51a3.74,3.74,0,0,1-1.86-.42"/><polygon points="155.52 69.79 177.85 69.79 181.31 57.36 139.75 57.34 129.89 92.86 149.11 92.87 155.52 69.79"/><polygon points="183.69 48.78 142.13 48.77 145.59 36.34 187.14 36.35 183.69 48.78"/><path class="cls-1" d="M87.82,36.32l-13,46.95A7.36,7.36,0,0,0,74.51,85a5.88,5.88,0,0,0,.16,1.73,7.24,7.24,0,0,0,3.71,4.5,14.81,14.81,0,0,0,7.32,1.66h21.67c5.3,0,9-.62,11.15-1.82s3.65-3.31,4.51-6.42l13.41-48.28H117.22l-11.67,42A2.5,2.5,0,0,1,104.41,80a6.35,6.35,0,0,1-2.84.46H98.26A3.87,3.87,0,0,1,96.4,80a1.87,1.87,0,0,1-1-1.15,1.6,1.6,0,0,1,0-.44,2.07,2.07,0,0,1,.07-.41l11.57-41.68Z"/></g></svg>