<svg xmlns="http://www.w3.org/2000/svg" viewBox="0 0 407.12 145.98"><defs><style>.cls-1{fill-rule:evenodd;}</style></defs><title>Webpage_UFCGym_Logo</title><g id="LOGOS"><polygon points="328.37 79.22 234.63 79.2 232.9 85.41 326.64 85.44 328.37 79.22"/><polygon points="323.03 55.65 313.95 68.86 306.82 68.86 305.34 55.64 299.65 72.99 292.76 72.99 303.1 41.33 310.14 41.33 312.26 61.78 325.64 41.34 332.63 41.34 326.08 73 319.23 73 323.03 55.65"/><polygon points="279.2 73.03 272.15 73.03 274.54 63.88 270.71 41.31 277.8 41.31 280.01 55.98 289.66 41.31 297.71 41.32 281.59 63.88 279.2 73.03"/><path d="M253,55.76l-1.54,5.71h4.29l-1.49,5.25a25.55,25.55,0,0,1-4.72.52c-3,0-3.83-1.14-3.63-3.09a9.46,9.46,0,0,1,.31-1.57l3.08-11c.77-2.81,2.18-4.43,5.84-4.43a39.17,39.17,0,0,1,9,1.2l2.19-6a36.74,36.74,0,0,0-9.78-1.53c-8.47,0-12.21,3.47-13.81,9.27l-3.79,13.71a13.75,13.75,0,0,0-.4,2c-.48,4.62,2.44,7.66,9.77,7.66a30.14,30.14,0,0,0,11.25-2l4.38-15.66Z"/><path class="cls-1" d="M202.64,72.55a1.85,1.85,0,0,1-.94-1.15,1.29,1.29,0,0,1,0-.44,1.51,1.51,0,0,1,.06-.41l7.54-27.14a2.54,2.54,0,0,1,1.15-1.64,6.27,6.27,0,0,1,2.83-.46H234l3.45-12.44h-29.1c-5.3,0-9,.63-11.15,1.82s-3.65,3.31-4.51,6.43l-10.75,38.7a7.36,7.36,0,0,0-.28,1.69,5.88,5.88,0,0,0,.16,1.73,7.24,7.24,0,0,0,3.71,4.5,14.79,14.79,0,0,0,7.32,1.66h30.47L226.77,73H204.5a3.87,3.87,0,0,1-1.86-.42"/><polygon points="155.52 62.3 177.85 62.31 181.3 49.87 139.75 49.86 129.89 85.38 149.11 85.39 155.52 62.3"/><polygon points="183.68 41.3 142.13 41.29 145.58 28.85 187.14 28.86 183.68 41.3"/><path class="cls-1" d="M87.82,28.84l-13,46.94a7.48,7.48,0,0,0-.29,1.7,6.17,6.17,0,0,0,.17,1.72,7.22,7.22,0,0,0,3.71,4.51,14.87,14.87,0,0,0,7.32,1.66h21.67c5.3,0,9-.63,11.15-1.82s3.65-3.31,4.51-6.42l13.4-48.28H117.21l-11.66,42a2.49,2.49,0,0,1-1.15,1.63,6.11,6.11,0,0,1-2.83.47H98.26a3.74,3.74,0,0,1-1.86-.42,1.82,1.82,0,0,1-1-1.14,1.64,1.64,0,0,1,0-.44,2.07,2.07,0,0,1,.07-.41L107,28.84Z"/><path d="M171.21,117.59a15,15,0,0,1-6.58-1.4l1.86-3.76a17.69,17.69,0,0,0,5.93,1c2.5,0,3.12-.49,3.62-2.3s.51-2.17-2.81-3c-4.91-1.13-5.4-2.17-4.1-6.84,1.19-4.31,3.19-6,9.13-6a28.66,28.66,0,0,1,6.34.72L183,100.15a30.58,30.58,0,0,0-5.83-.62c-2.17,0-2.77.39-3.21,2-.57,2.08-.48,2.11,2.7,2.92,5.44,1.39,5.42,2.53,4.24,6.77S177.73,117.59,171.21,117.59Z"/><path d="M182,117.26l6-21.58h4.86l-6,21.58Z"/><path d="M201,105.6h8l-3,10.79a25.06,25.06,0,0,1-7.75,1.2c-5.64,0-7.84-2.24-6.57-6.84l2.19-7.88c1.52-5.47,5.16-7.52,11-7.52a22.36,22.36,0,0,1,6.49.91l-1.73,4.25a24.36,24.36,0,0,0-6-.75c-2.75,0-4.19.62-4.93,3.27l-2,7.39c-.58,2.08,0,3.15,2.79,3.15a19.88,19.88,0,0,0,2.84-.2l1-3.46h-3.47Z"/><path d="M217.6,103.07l-3.94,14.19H209l6-21.58h6l3,14.87,4.13-14.87h4.63l-6,21.58h-6Z"/><path d="M248,117.26H243v-4.21h-7.23l-2.34,4.21h-5.05l12.56-21.58h6.48ZM238,109h5l.05-9Z"/><path d="M261.76,100,257,117.26H252.1L256.89,100h-5.8l1.2-4.31h16.46L267.56,100Z"/><path d="M287.19,95.68,283,111c-.91,3.28-3.87,6.62-10,6.62s-7.21-3.34-6.3-6.62l4.24-15.29h4.87l-4.12,14.84c-.49,1.75.08,2.76,2.51,2.76s3.55-1,4-2.76l4.11-14.84Z"/><path d="M294,110.55h-2.85l-1.86,6.71h-4.86l6-21.58h9c5.25,0,6.62,2.07,5.5,6.12l-.74,2.66a7.39,7.39,0,0,1-4.64,5.41l3.17,7.39h-5.77Zm5.9-8.29c.45-1.62,0-2.27-2-2.27H294.1l-1.76,6.35h3.86c2.07,0,2.8-.74,3.25-2.37Z"/><path d="M304.48,117.26l6-21.58H324L322.85,100h-8.72l-1.1,4h8l-1.19,4.31h-8l-1.3,4.7h8.71l-1.19,4.31Z"/></g></svg>