<svg xmlns="http://www.w3.org/2000/svg" width="53" height="16" viewBox="0 0 53 16">
    <path fill="#B3B3B3" fill-rule="evenodd" d="M22.434 5.025l-1.655 5.908c-.369 1.326-1.375 2-3.155 2-1.687 0-2.242-.534-2.147-1.465.016-.163.059-.349.101-.535l1.655-5.908c.36-1.233 1.375-2.001 3.155-2.001 1.664 0 2.237.582 2.14 1.535-.014.14-.054.303-.094.466zM21.047 0c-4.404 0-6.372 1.838-7.18 4.722l-1.775 6.397c-.07.233-.12.489-.144.721-.213 2.094 1.151 4.118 4.83 4.118 4.615 0 6.552-1.768 7.367-4.722l1.768-6.328c.071-.232.12-.488.142-.698C26.27 2.094 24.749 0 21.047 0zm3.786 15.725h3.44l.345-1.234.995-3.604h.013l.826-2.954 1.295-4.676h.013l.846-3.024H29.15l-4.317 15.492zm27.32-12.468L53 .233h-9.816l-4.317 15.492h9.817l.823-3.024h-6.373l.987-3.49h5.881l.844-3h-5.88l.815-2.954h6.373zM35.125.233h-.169l-.846 3.024h.497c1.195 0 1.653.326 1.573 1.116a4.61 4.61 0 0 1-.137.652l-.329 1.163c-.331 1.186-.786 1.745-2.309 1.745h-.602l-.827 2.954h.004l1.525 4.838h3.865l-1.688-5.304c2.013-.674 2.841-1.907 3.366-3.838l.517-1.86c.082-.35.16-.652.19-.955.233-2.28-1.28-3.535-4.63-3.535zM4.07 10.846l1.509-5.398c.447-1.628.897-2.276 2.558-2.247 1.186.02 2.701.089 4.136.288L13.366.495C11.872.11 10.42 0 8.85 0 5.055 0 2.97 1.372 2.087 4.536l-1.876 6.7a5.195 5.195 0 0 0-.188.93c-.22 2.163 1.158 3.626 4.58 3.792 1.755.085 3.356.057 5.047-.233l.38-2.973c-1.816.225-3.361.23-4.573.112-1.293-.126-1.642-.496-1.53-1.297.022-.163.07-.466.143-.721z"/>
</svg>
