<svg xmlns="http://www.w3.org/2000/svg" width="64" height="16" viewBox="0 0 64 16">
    <g fill="#B3B3B3" fill-rule="evenodd">
        <path d="M3.44 10.682c0 1.353.436 2.146 2.133 2.146 1.101 0 2.615-.14 3.945-.373L10 15.51c-1.514.327-2.89.49-4.427.49C1.72 16 0 14.064 0 11.242V4.758C0 1.936 1.72 0 5.573 0 7.11 0 8.486.163 10 .49l-.482 3.055c-1.33-.233-2.844-.373-3.945-.373-1.697 0-2.133.793-2.133 2.146v5.364zM13 16V0h3.623v12.805H23V16zM46.152 16c-1.845 0-3.786-.396-5.152-1.003l.6-2.705c1.461.443 2.947.746 4.6.746 1.846 0 2.205-.35 2.205-1.656 0-1.4-.072-1.563-2.684-2.122-3.858-.817-4.433-1.563-4.433-4.922C41.288 1.236 42.414 0 46.8 0c1.39 0 3.067.14 4.84.513l-.359 2.939c-1.821-.303-2.996-.443-4.433-.443-1.606 0-1.965.28-1.965 1.422 0 1.493.071 1.517 2.588 2.1C51.784 7.534 52 8.35 52 11.405 52 14.485 50.97 16 46.152 16M58.153 16c-1.846 0-3.787-.396-5.153-1.003l.6-2.705c1.461.443 2.947.746 4.6.746 1.846 0 2.205-.35 2.205-1.656 0-1.4-.072-1.563-2.684-2.122-3.858-.817-4.433-1.563-4.433-4.922C53.288 1.236 54.414 0 58.8 0c1.39 0 3.067.14 4.84.513l-.359 2.939c-1.821-.303-2.995-.443-4.434-.443-1.605 0-1.964.28-1.964 1.422 0 1.493.071 1.517 2.587 2.1C63.784 7.534 64 8.35 64 11.405 64 14.485 62.97 16 58.153 16M33.989 0h-4.43L24 16H28.43l1.085-3.123h.01L34 0zM35.534 4L33 12.817h1.567L35.398 16H39z"/>
    </g>
</svg>
