<svg xmlns="http://www.w3.org/2000/svg" xmlns:xlink="http://www.w3.org/1999/xlink" width="147" height="32" viewBox="0 0 147 32">
    <defs>
        <path id="a" d="M0 0h147v32H0z"/>
    </defs>
    <g fill="none" fill-rule="evenodd">
        <mask id="b" fill="#fff">
            <use xlink:href="#a"/>
        </mask>
        <path fill="#1A1A1A" d="M24.32 0l-6.634 23.772c-.125.448-.34.754-.653.925-.312.172-.847.263-1.615.263h-1.884c-.423 0-.779-.081-1.062-.238-.287-.163-.465-.378-.537-.65a.875.875 0 0 1-.024-.248c.004-.075.015-.154.038-.233L18.529 0H7.58L.166 26.577a4.328 4.328 0 0 0-.161.959c-.019.337.019.656.094.975.283 1.069.982 1.914 2.114 2.552 1.113.619 2.51.937 4.171.937l12.338-.003c3.02 0 5.125-.356 6.352-1.032 1.227-.675 2.076-1.875 2.566-3.637L35.267 0H24.321zm39.822 0H40.477l-1.964 7.04h23.664L64.142 0zM31.548 32h10.947l3.646-13.068h12.718l1.964-7.04H37.159L31.548 32zm41.432-7.278c-.289-.163-.466-.377-.538-.65a.857.857 0 0 1-.024-.248c.004-.075.016-.153.038-.232l4.288-15.364c.124-.449.34-.754.652-.926.312-.172.847-.262 1.616-.262H90.83L92.795 0H76.223c-3.02 0-5.124.356-6.352 1.032-1.226.675-2.075 1.875-2.566 3.637l-6.116 21.908c-.094.325-.143.65-.16.959-.02.338.019.656.094.976.283 1.068.982 1.913 2.114 2.551 1.113.619 2.51.937 4.17.937h17.348l1.965-7.04H74.04c-.422 0-.777-.081-1.06-.238zm25.978.517c2.466 0 4.685-.457 6.407-1.158l2.491-8.868h-6.21l-.877 3.23h2.445l-.851 2.973c-.777.162-1.872.296-2.686.296-1.705 0-2.181-.646-2.069-1.75.03-.271.092-.593.175-.888l1.756-6.22c.435-1.591 1.236-2.507 3.32-2.507 1.437 0 3.687.27 5.108.673l1.244-3.392c-1.363-.432-3.73-.864-5.573-.864-4.82 0-6.95 1.967-7.86 5.253l-2.159 7.758c-.09.348-.19.78-.227 1.13-.27 2.611 1.395 4.334 5.566 4.334zm13.609-.257h4.014l1.36-5.176 9.173-12.777h-4.583l-5.491 8.303-1.262-8.303h-4.04l2.187 12.777-1.358 5.176zm15.658-.023l3.238-9.822.844 7.48h4.063l5.166-7.48-2.157 9.822h3.9L147 7.036h-3.98l-7.616 11.572-1.21-11.572h-4.007l-5.885 17.923h3.923zM90.215 32l53.385-.001.98-3.52-53.383.003L90.216 32z" mask="url(#b)"/>
    </g>
</svg>
